<svg width="50" height="50" viewBox="0 0 50 50" fill="none" xmlns="http://www.w3.org/2000/svg">
<path d="M44.4619 16.6249L44.7791 16.3171C44.844 16.2558 44.8957 16.1818 44.9311 16.0998C44.9664 16.0178 44.9846 15.9295 44.9846 15.8402C44.9846 15.7509 44.9664 15.6625 44.9311 15.5805C44.8957 15.4985 44.844 15.4245 44.7791 15.3632L37.3276 8.14992C37.1945 8.02243 37.0173 7.95126 36.833 7.95126C36.6488 7.95126 36.4716 8.02243 36.3385 8.14992C36.3385 8.14992 34.7924 9.03195 34.5119 6.71477C34.4002 5.78273 34.1893 5.19992 33.9119 4.86711C33.8776 4.82883 32.3409 3.32258 32.3409 3.32258C32.2076 3.19544 32.0305 3.12451 31.8463 3.12451C31.6621 3.12451 31.485 3.19544 31.3518 3.32258L25.7744 8.72258C25.7097 8.78417 25.6582 8.85828 25.6229 8.9404C25.5877 9.02252 25.5695 9.11095 25.5695 9.20031C25.5695 9.28967 25.5877 9.3781 25.6229 9.46022C25.6582 9.54235 25.7097 9.61645 25.7744 9.67805C25.7744 9.67805 27.3299 11.1663 27.3705 11.1976C27.7135 11.4671 28.3151 11.671 29.2791 11.7788C31.6729 12.0507 30.7604 13.546 30.7604 13.546C30.6956 13.6077 30.644 13.682 30.6088 13.7642C30.5735 13.8465 30.5554 13.935 30.5554 14.0245C30.5554 14.114 30.5735 14.2026 30.6088 14.2848C30.644 14.3671 30.6956 14.4413 30.7604 14.503L32.3768 16.0679L28.1916 20.1187L27.5721 19.5187C27.5721 19.5187 25.3713 20.8835 22.9534 23.2257C20.2823 25.8101 18.7854 29.2249 15.2612 32.6351C9.96195 37.764 7.38382 38.9265 5.2471 40.4741C4.44085 41.0562 4.51663 41.1484 5.25492 41.8632L7.55179 44.0882L9.84867 46.3116C10.5869 47.0241 10.683 47.0976 11.2862 46.3194C12.8838 44.2523 14.1815 41.8499 19.4807 36.7187C23.0041 33.3101 26.5346 31.8601 29.2026 29.2757C31.6213 26.9343 33.0323 24.8046 33.0323 24.8046L32.4127 24.2038L36.5955 20.153L38.2119 21.7187C38.3453 21.8451 38.5222 21.9155 38.706 21.9152C38.8898 21.9149 39.0665 21.844 39.1994 21.7171L39.444 21.4804C40.8737 22.6484 45.483 26.8812 44.0252 31.8234C43.826 32.4991 43.4823 33.1015 43.658 33.2726C43.8979 33.503 44.8151 32.6179 45.3494 32.0968C52.1385 25.4765 45.8112 18.057 44.4619 16.6249Z" fill="white"/>
<path d="M31.8518 28.475C31.2365 29.1572 30.5986 29.8188 29.9393 30.4586C28.9385 31.4273 27.8409 32.2711 26.6784 33.0906L37.7448 44.1406C38.0709 44.4629 38.5109 44.6436 38.9694 44.6436C39.4279 44.6436 39.8679 44.4629 40.194 44.1406L42.6432 41.6953C42.9673 41.371 43.1494 40.9312 43.1494 40.4727C43.1494 40.0141 42.9673 39.5743 42.6432 39.25L31.8518 28.475ZM9.82913 22.9523L13.1768 19.6102L19.3369 25.7609C20.1526 24.6844 20.9955 23.6656 21.958 22.7344C22.6604 22.0547 23.3867 21.4001 24.1354 20.7719L18.0737 14.7203L21.4198 11.3797C21.5823 11.2172 21.7112 11.0243 21.7992 10.8119C21.8871 10.5996 21.9324 10.372 21.9324 10.1422C21.9324 9.91236 21.8871 9.68478 21.7992 9.47245C21.7112 9.26012 21.5823 9.06719 21.4198 8.90469L16.1448 3.6375C15.8149 3.30997 15.3689 3.12603 14.9041 3.12573C14.4392 3.12544 13.993 3.30882 13.6627 3.63594L10.3182 6.97656L9.02523 5.68594C8.69936 5.36369 8.25963 5.18282 7.80133 5.18253C7.34303 5.18224 6.90307 5.36254 6.57679 5.68438L4.12835 8.13125C3.80509 8.45573 3.62358 8.8951 3.62358 9.35313C3.62358 9.81115 3.80509 10.2505 4.12835 10.575L5.42132 11.8656L2.07367 15.2078C1.74687 15.5371 1.56348 15.9822 1.56348 16.4461C1.56348 16.91 1.74687 17.3551 2.07367 17.6844L7.35257 22.9523C7.68184 23.2791 8.12694 23.4625 8.59085 23.4625C9.05477 23.4625 9.49987 23.2791 9.82913 22.9523Z" fill="white"/>
</svg>
